<?xml version="1.0" encoding="utf-8"?>
<!-- Generator: Adobe Illustrator 24.3.0, SVG Export Plug-In . SVG Version: 6.00 Build 0)  -->
<svg version="1.1" id="Layer_1" xmlns="http://www.w3.org/2000/svg" xmlns:xlink="http://www.w3.org/1999/xlink" x="0px" y="0px"
	 viewBox="0 0 2053.9 658.3" style="enable-background:new 0 0 2053.9 658.3;" xml:space="preserve">
<g>
	<path d="M197,377.3c-3.3,2.8-6.7,5.7-10,8.7c-1.7,1.3-3.2,2.7-4.7,4c-0.2,0-0.2,0.1-0.2,0.2c-2.2,4.8-4.2,9.6-6.2,14.2
		c-0.2,0.2-0.2,0.4,0,0.7c0.2,0.3,0.4,0.5,0.7,0.5c21.1,3,41.7,5,61.7,5.9c20,0.9,37.4,1.5,52.2,1.6c3.2,0.2,6.2,0.2,9.2,0.2
		c49.6-0.2,99.1-3.2,148.4-9c1,0,1.7,0.4,2.2,1.1c0.5,0.8,0.6,1.6,0.4,2.5c-0.2,0.9-0.9,1.5-1.9,1.6c-39.6,5.3-79.4,9.5-119.3,12.4
		c-39.9,2.9-79.8,2.7-119.8-0.6c-11.7-1.2-24.6-3-38.7-5.5c-0.5-0.2-0.9,0-1.2,0.5c-6,12.3-12.2,22.9-18.6,31.7
		c-6.4,8.8-12.8,14.6-19.1,17.5h-0.2c-4.3,1-8.2,0.1-11.5-2.6c-3.3-2.7-5.3-6.3-6-10.6c-0.7-4.3-0.2-8.4,1.2-12.4
		c1.5-3.9,3.4-7.5,5.7-10.9c5.2-6.8,10.7-13.3,16.7-19.5c0.3-0.2,0.4-0.4,0.2-0.8c-0.2-0.3-0.4-0.6-0.7-0.7
		c-16.3-4.5-31.6-10.6-45.8-18.2c-14.2-7.7-25.9-17.3-35-28.8c-9.1-11.6-14-25.5-14.9-41.8c1.7-22.8,8.7-44.5,21.1-65.1
		c12.4-20.6,27.3-39.7,44.7-57.3c17.4-17.6,34.4-33.5,51.1-47.5c31.3-25.8,64.8-48.5,100.5-68.1c35.7-19.6,73.6-33.2,113.8-40.8
		c13-2.3,26.1-3.6,39.5-3.7c13.3-0.2,26.4,1.7,39.2,5.7c16.3,5.7,27.6,15.2,33.7,28.6c6.2,13.4,6.2,28.1,0,44.1
		c-6,14.7-13.9,28.1-23.9,40.2c-9.9,12.2-20.4,23.6-31.6,34.5c-22,20.5-44.7,40-68.1,58.7c-23.4,18.6-47.1,37-71.1,54.9
		C259,327.5,227.7,352,197,377.3z M52.7,291.2c-6.8,21.6-6.6,39.8,0.7,54.3c7.3,14.6,19.4,26.3,36.1,35.1
		c16.7,8.8,35.9,15.5,57.6,20c0.3,0,0.6-0.1,0.7-0.3c6.2-5.7,12.5-11.1,19-16.2l0.2-0.3c0.7-1.5,1.4-3,2.2-4.5
		c12.8-26.8,25.1-53.9,36.7-81.2c11-27,21.6-54.5,32-82.7c10.3-28.1,18.5-55.9,24.5-83.4c0.2-0.2,0.2-0.3,0-0.5
		c-0.3-1.8,0.1-3.3,1.2-4.4c1.2-1.1,2.5-1.5,4.1-1.4c1.6,0.2,2.8,1.1,3.6,2.7c0,0.2,0,0.3,0,0.5c0.2,7.2-1.2,14.5-4.2,22
		c-1.2,3.3-2.1,6.5-2.7,9.5c-13.7,42.5-28.1,84.7-43.5,126.6c-1.8,4.8-3.6,9.7-5.2,14.7c-2,5.2-4.5,11.8-7.5,20
		c-4,11.5-8.7,24.4-14.2,38.7c-0.2,0.5-0.1,0.9,0.2,1.1c0.3,0.3,0.7,0.2,1.2-0.1c5.7-4.2,11.2-8.4,16.7-12.7
		c10.8-8.3,21.6-16.6,32.5-24.7c34.5-25.3,68.1-51.6,101-78.8c32.9-27.2,63.3-57,91.3-89.3c21.1-26.3,31.9-46.8,32.2-61.6
		c0.3-14.7-6.4-24.9-20.2-30.5c-13.8-5.6-31.2-7.7-52.1-6.2c-20.9,1.4-42,5.3-63.3,11.6c-34,10.3-70.1,26.5-108.4,48.6
		C187,140,152,166,120.5,195.9c-31.6,29.9-54.2,61.6-67.8,95L52.7,291.2L52.7,291.2z M134.4,442.8c1.3-2,2.7-4,4-6
		c0.3-0.3,0.4-0.7,0.2-1c-0.2-0.3-0.4-0.5-0.7-0.5c-0.3,0-0.7,0.2-1,0.5c-0.7,0.7-1.2,1.5-1.7,2.5c-0.3,0.5-0.7,1-1,1.5
		c-1.5,2.2-2.6,4.5-3.2,7C132,445.6,133.2,444.3,134.4,442.8z"/>
	<path d="M590.4,386.1c0.5-0.8,1.2-1.2,2.1-1.1c0.9,0.1,1.6,0.5,2.1,1.3c0.5,0.7,0.5,1.6,0,2.6c-1,1.3-2,2.7-3,4.2
		c-5.2,8-11.3,16.5-18.5,25.5c-7.2,9-15.1,16.3-23.7,21.9c-8.7,5.6-18,7.3-28,5.1c-8-3.8-13.9-9.7-17.7-17.7
		c-3.8-8-6.4-16.7-7.7-26.2c-0.3-1.3-1.1-2.1-2.4-2.4c-1.2-0.2-2.2,0.2-2.9,1.4v0.2c-2.5,3.8-4.9,7.9-7.2,12.2
		c-4.5,8.5-9.5,16.2-14.9,23.1c-5.4,6.9-12.1,11-20.1,12.1c-10.3-1-15.7-7-16.1-18.1c-0.4-11.1,2.3-23.9,8.1-38.3
		s12.9-27.3,21.4-38.5c8.4-11.2,16.2-17.3,23.4-18.5c3.7-1.2,7.8-0.8,12.4,1.2c4.6,2,8.2,4.9,10.7,8.6c2.6,3.7,2.7,7.7,0.4,11.9
		c3.2,1.8,4.6,5.1,4.2,9.7c-3.7,19-4.1,35.5-1.2,49.6c2.8,14.1,9.2,21.8,19,23.1c9.8,1.3,23.5-7.4,41-26.2
		C578.7,404.5,584.9,395.6,590.4,386.1z M452.5,424.3c7.5-10.2,14.5-21.5,21-34c6.2-11.7,12.7-22.4,19.7-32.2
		c0.2-0.3,0.3-0.8,0.4-1.5c0.1-0.7,0.1-1.3,0-1.9c-0.1-0.6-0.4-1-1-1.1c-0.6-0.2-1.5,0.1-2.9,0.7c-9.2,5.3-17.2,15.4-24.1,30.3
		C458.7,399.6,454.4,412.8,452.5,424.3z"/>
	<path d="M758.7,383.3c1.3,0.7,2,1.7,2.1,3c0.1,1.3-0.3,2.5-1.1,3.5c-7.2,10.5-16.2,19.8-27.1,27.8c-10.9,8.1-22,13.3-33.2,15.7
		c-11.2,2.4-20.9,0.4-29.1-6.1c-8.2-6.5-13-19-14.5-37.5c0-0.3,0-0.7,0-1c0-1.7-0.1-3.6-0.2-5.7c-0.2-2.2-0.4-4.2-0.6-6
		c-0.2-1.8-0.5-3-0.9-3.5c-3.7-2-8.5,1.1-14.5,9.2c-6,8.2-12.4,18-19.2,29.5c-5.7,9.7-11.1,18.2-16.2,25.6
		c-5.2,7.4-9.5,11.6-13,12.6c-5.7,0-9.3-2-11-6c-1.7-4-2.2-8.7-1.7-14c0.5-5.3,1.2-10,2.2-14c0-0.5,0.1-0.9,0.2-1.2
		c4.7-21.8,11-43,19-63.7c0.2-0.3,0.3-0.6,0.4-0.9c0.1-0.2,0.2-0.5,0.2-0.6c0.1-0.2,0.2-0.4,0.4-0.7v-0.3c0.2-0.3,0.2-0.6,0.2-0.7
		c0.2-2.7,1.2-5,3.2-6.9c2-1.9,4.3-2.9,7-3c2.7-0.1,5.1,1.1,7.2,3.6c0.8,1,1.5,2.2,1.9,3.6c0.4,1.4,0.5,2.7,0.4,3.9
		c-0.8,6-2.2,11.9-4.2,17.7c-0.7,2.3-1.3,4.7-2,7c-1.8,6.7-4.4,16-7.7,28.1c-3.3,12.1-5.9,21.6-7.7,28.6c1.5-2.2,4.3-6.6,8.5-13.2
		c6.8-11.2,14.8-23.2,23.9-36.1c9.1-12.9,16.9-20.9,23.4-23.9c5.7-1.7,10.8-0.8,15.4,2.6c4.6,3.4,7.3,7.9,8.1,13.4
		c1,6.5,1,12.9,0,19.2c-1.7,8-1.3,15.7,1,23c4.8,6.7,11,9.5,18.6,8.4c7.6-1.1,15.1-4,22.7-8.6c7.6-4.7,13.6-9.2,18.1-13.5
		c6-5,10.9-10.8,14.7-17.5c0.5-0.8,1.2-1.4,2.2-1.7C756.7,382.7,757.7,382.8,758.7,383.3z M592.4,450.3l-2,0.3c0.2,0,0.3,0,0.5,0
		h0.2C591.5,450.3,591.9,450.3,592.4,450.3z"/>
	<path d="M861.4,383.8c1.2,0.8,1.7,1.9,1.7,3.1c0,1.2-0.5,2.3-1.5,3.1c-6.8,8-15.3,16.6-25.3,25.7c-10.1,9.2-20.9,16.9-32.3,23.1
		c-11.5,6.2-22.7,9-33.7,8.1c-12.3-3.8-19.6-10.7-21.9-20.7c-2.2-10-1.7-20.8,1.7-32.5c3.4-11.7,7.4-21.8,11.9-30.5
		c2.2-3.7,5-5.5,8.4-5.6c3.4-0.1,6.2,1.2,8.5,3.7c2.2,2.6,2.7,6,1.4,10.1c-1.5,5.3-3.3,10.7-5.5,16.2c-1.8,4.8-3.5,9.7-5,14.5
		c-0.2,0.8-0.3,1.7-0.5,2.7c-3,7.8-3.7,15.6-2.2,23.2c2.5,5,6.5,7.7,12,8.2c5.5,0.5,10.7-0.2,15.5-2.2c17.6-7.7,33.2-18.5,46.7-32.5
		c5.3-5.3,10.2-11.1,14.7-17.2c0.7-0.8,1.5-1.3,2.6-1.5C859.6,382.9,860.5,383.2,861.4,383.8z M792.9,322.1c-4,4.2-7.7,6.1-11,5.9
		c-3.3-0.2-5.4-2-6.1-5.2c-0.7-3.2,0.7-7.2,4.4-11.9c4-4.2,7.7-6.1,11-5.9c3.3,0.3,5.4,2,6.1,5.2
		C798.1,313.5,796.6,317.5,792.9,322.1z"/>
	<path d="M1000.7,386.1c0.5-0.8,1.2-1.2,2.1-1.1c0.9,0.1,1.6,0.5,2.1,1.3c0.5,0.7,0.5,1.6,0,2.6c-1,1.3-2,2.7-3,4.2
		c-5.2,8-11.3,16.5-18.5,25.5c-7.2,9-15.1,16.3-23.7,21.9c-8.7,5.6-18,7.3-28,5.1c-8-3.8-13.9-9.7-17.7-17.7
		c-3.8-8-6.4-16.7-7.7-26.2c-0.3-1.3-1.1-2.1-2.4-2.4c-1.2-0.2-2.2,0.2-2.9,1.4v0.2c-2.5,3.8-4.9,7.9-7.2,12.2
		c-4.5,8.5-9.5,16.2-14.9,23.1c-5.4,6.9-12.1,11-20.1,12.1c-10.3-1-15.7-7-16.1-18.1c-0.4-11.1,2.3-23.9,8.1-38.3
		s12.9-27.3,21.4-38.5c8.4-11.2,16.2-17.3,23.4-18.5c3.7-1.2,7.8-0.8,12.4,1.2c4.6,2,8.2,4.9,10.7,8.6c2.6,3.7,2.7,7.7,0.4,11.9
		c3.2,1.8,4.6,5.1,4.2,9.7c-3.7,19-4.1,35.5-1.3,49.6c2.8,14.1,9.2,21.8,19,23.1c9.8,1.3,23.5-7.4,41-26.2
		C989,404.5,995.2,395.6,1000.7,386.1z M862.9,424.3c7.5-10.2,14.5-21.5,21-34c6.2-11.7,12.7-22.4,19.7-32.2
		c0.2-0.3,0.3-0.8,0.4-1.5c0.1-0.7,0.1-1.3,0-1.9c-0.1-0.6-0.4-1-1-1.1c-0.6-0.2-1.5,0.1-2.9,0.7c-9.2,5.3-17.2,15.4-24.1,30.3
		C869.1,399.6,864.7,412.8,862.9,424.3z"/>
	<path d="M1399.1,88.4c13.5,17.8,21.4,37.3,23.6,58.3c2.2,21.1,0.7,42.2-4.7,63.6c-5.4,21.3-12.7,41.4-21.9,60.2
		c-9.3,19.6-22.3,41.2-39,64.7c-16.7,23.5-35.7,46-57.1,67.4c-21.4,21.5-43.9,39.1-67.4,52.8c-23.6,13.7-47,20.6-70.3,20.6
		c-20-3.7-33.1-12.2-39.5-25.6c-6.3-13.4-8.1-29.1-5.4-47.2c2.7-18.1,7.6-35.9,14.6-53.4c7-17.6,13.7-32.3,20-44.3
		c15-28.8,31.7-56.5,50.2-83.2c1-1.3,2-2.7,3-4c7.8-11.2,15.9-22.1,24.4-33c8.4-10.8,17.7-20.9,27.8-30.2c4.8-4.3,9.2-6.7,13-7.2
		c2.3-0.8,4.7-0.8,7,0c4,1.8,6.1,4.8,6.2,9c0.2,2-0.3,3.8-1.2,5.5c-43.1,98.4-80.8,198.8-113.1,301.2c13.2-1.8,25.8-6.2,38-13.2
		c12.2-7,23.6-14.5,34.2-22.5c1-0.8,2-1.6,3-2.2c16.3-12.2,33.8-28.3,52.6-48.6c18.7-20.2,36.5-42.8,53.2-67.8
		c16.7-25,30.2-50.6,40.3-76.9c10.2-26.3,14.7-51.7,13.7-76c-1-24.4-9.9-46.1-26.7-65.1c-19.8-17.8-44.2-27.6-73.3-29.5
		c-29.1-1.8-59.5,1.7-91.4,10.6c-31.9,8.9-62,20.5-90.4,34.7c-28.4,14.2-51.8,28.5-70.3,42.8c-16.1,11.7-32.3,25.8-48.3,42.6
		c-16.1,16.7-29.5,35-40.3,54.7c-10.8,19.7-16.4,39.8-16.6,60.3c-0.2,20.5,7.5,40.3,23.4,59.4c5.2,5.8,10.9,10.8,17.2,15
		c2.2,1.8,3,3.8,2.6,6c-0.4,2.2-1.6,3.8-3.6,4.9c-2,1.1-4.2,0.7-6.5-1.1c-20.5-18.1-32.8-39.3-36.8-63.4
		c-4.1-24.1-0.3-48.5,11.4-72.9c18.3-36.8,43.2-68.5,74.5-95.2c31.4-26.6,65.2-49.2,101.5-67.7c19-9.7,40.5-18.7,64.6-27.2
		c24.1-8.5,48.7-14.4,73.8-17.6c25.1-3.2,49-2,71.7,3.9C1363.3,57.2,1382.8,69.6,1399.1,88.4z M1123.1,397.3
		c-2.5,13.2-1.7,26.3,2.4,39.5c4.1,13.2,13,21.9,26.8,26.2c2.8,0.5,5.7,0.8,8.7,0.8c21.6-78.6,46.3-156.3,73.9-233
		c3.3-9,6.7-18,10-27c0.5-1.8,0.3-3.4-0.6-4.6c-0.9-1.2-2.2-2-3.7-2.4c-1.6-0.3-3,0.2-4.4,1.5c-26.5,27.8-50.8,60.8-72.9,98.9
		C1141.2,335.3,1127.8,368.7,1123.1,397.3z"/>
	<path d="M1535.7,386.1c0.5-0.8,1.2-1.2,2.1-1.1c0.9,0.1,1.6,0.5,2.1,1.3c0.5,0.7,0.5,1.6,0,2.6c-1,1.3-2,2.7-3,4.2
		c-5.2,8-11.3,16.5-18.5,25.5c-7.2,9-15.1,16.3-23.7,21.9c-8.7,5.6-18,7.3-28,5.1c-8-3.8-13.9-9.7-17.7-17.7
		c-3.8-8-6.4-16.7-7.7-26.2c-0.3-1.3-1.1-2.1-2.4-2.4c-1.2-0.2-2.2,0.2-2.9,1.4v0.2c-2.5,3.8-4.9,7.9-7.2,12.2
		c-4.5,8.5-9.5,16.2-14.9,23.1c-5.4,6.9-12.1,11-20.1,12.1c-10.3-1-15.7-7-16.1-18.1c-0.4-11.1,2.3-23.9,8.1-38.3
		s12.9-27.3,21.4-38.5c8.4-11.2,16.2-17.3,23.4-18.5c3.7-1.2,7.8-0.8,12.4,1.2c4.6,2,8.2,4.9,10.7,8.6c2.6,3.7,2.7,7.7,0.4,11.9
		c3.2,1.8,4.6,5.1,4.2,9.7c-3.7,19-4.1,35.5-1.3,49.6c2.8,14.1,9.2,21.8,19,23.1c9.8,1.3,23.5-7.4,41-26.2
		C1524,404.5,1530.2,395.6,1535.7,386.1z M1397.8,424.3c7.5-10.2,14.5-21.5,21-34c6.2-11.7,12.7-22.4,19.7-32.2
		c0.2-0.3,0.3-0.8,0.4-1.5c0.1-0.7,0.1-1.3,0-1.9c-0.1-0.6-0.4-1-1-1.1c-0.6-0.2-1.5,0.1-2.9,0.7c-9.2,5.3-17.2,15.4-24.1,30.3
		C1404,399.6,1399.7,412.8,1397.8,424.3z"/>
	<path d="M1637.8,372.3c0.8-0.8,1.7-1.1,2.7-0.9c1,0.2,1.7,0.8,2.1,1.7c0.4,0.9,0.2,1.8-0.6,2.6c-7.5,7.3-16.7,12.5-27.7,15.6
		c-11,3.1-20.9,1-29.7-6.1c-4.8-5.7-7.5-12-8-19c-0.2-1.5-0.9-2.4-2.2-2.7c-1.3-0.3-2.4,0.2-3.2,1.5c-3.2,6-5.8,11.2-8,15.7
		c-0.2,0.5-0.4,1-0.8,1.5c-6.7,14.7-11.7,30-15.2,46c-0.3,1.5-0.7,3.2-1,5c-0.7,3.2-1.6,6.2-2.7,9c-1.2,2.8-3.3,5-6.5,6.5
		c-3.7,1.2-6.9,0.6-9.9-1.7c-2.9-2.3-4-5.4-3.4-9.2c4-24.1,9-48.1,15-71.9c0-0.3,0.1-0.6,0.3-0.8c1.8-8.3,4.6-16.3,8.2-24
		c2.2-3.8,5-5.7,8.5-5.5c3.5,0.2,6.4,1.6,8.6,4.4c2.2,2.7,2.5,6.1,0.6,10.1c-5,12.8-8.9,25.9-11.7,39.2c1.7-4.2,3.3-8.3,5-12.5
		c3.5-9.2,7.2-18.2,11.2-27.2c0.5-1.3,1.1-2.7,1.7-4c2.7-5.8,5.9-11.4,9.7-16.9c3.8-5.4,8.9-8.8,15.2-10.1c2.5-0.3,4.7,0.2,6.6,1.5
		c1.9,1.3,3.1,3.2,3.6,5.7c0.3,2.8-0.4,5.2-2.2,7.2c-9.3,10.2-14.9,21.8-16.7,35c0,7.2,2.3,12.1,7,14.9c4.7,2.7,10.2,3.8,16.5,3.1
		c6.3-0.7,11.9-2.5,16.7-5.5C1631.6,378.4,1635,375.7,1637.8,372.3z"/>
	<path d="M1746.5,114.6c-17.3,39.8-33.1,80.3-47.5,121.4c-17,47.6-32.9,95.6-47.7,143.9c0.7-1,1.2-1.9,1.7-2.7
		c1-1.5,1.8-2.7,2.5-3.7c2-2.8,4.1-5.7,6.2-8.7c6-8.7,12.6-17.1,19.9-25.4s15.6-14.5,25.1-18.9c4.2-1.2,7.5-0.4,9.9,2.2
		c2.4,2.7,3.4,5.7,3,9.2c-0.4,3.5-2.7,6-6.9,7.5c-11.2,7.5-21.8,18.4-31.8,32.6c-10.1,14.2-18.7,27.4-25.8,39.6
		c-0.3,0.3-0.6,0.7-0.7,1.2c-0.2,0.3-0.4,0.7-0.7,1.2c-2.3,4.3-4.7,8.7-7,13.2c3.5-1.5,6.8-3.2,10-5c0.2,0,0.3-0.1,0.5-0.2
		c6-3.2,12-6.4,18-9.7c7.3-4,14.7-7.9,22.2-11.7c13.6-7.7,28.1-13.1,43.5-16.2c1.5-0.2,2.5,0.3,3,1.3c0.5,1,0.5,2,0.1,3.1
		c-0.4,1.1-1.3,1.7-2.6,1.9c-12.2,2.8-27,9.4-44.6,19.6c-17.6,10.2-32.8,19.5-45.6,27.8c-8,5.2-13.2,8.4-15.7,9.7
		c-1.3,0.7-2.7,1-4.2,1c-7.8,28-15.1,56-21.7,84.2c-6.2,26.5-11.2,53-15.2,79.7c-0.3,2.8-1.6,5.1-3.7,6.7c-2.2,1.7-4.7,2.3-7.5,2
		c-3-0.5-5.3-1.9-6.9-4.2c-1.6-2.3-2.1-4.9-1.6-7.7c7.2-32.3,15.2-64.4,24.2-96.2c31.3-110.4,65.3-219.9,102.1-328.7
		c8.8-26,17.9-51.9,27.2-77.7c2-4,4.8-6.1,8.4-6.4c3.6-0.3,6.6,1,9,3.6C1747.8,106.8,1748.1,110.3,1746.5,114.6z"/>
	<path d="M1884.3,386.1c0.5-0.8,1.2-1.2,2.1-1.1c0.9,0.1,1.6,0.5,2.1,1.3c0.5,0.7,0.5,1.6,0,2.6c-1,1.3-2,2.7-3,4.2
		c-5.2,8-11.3,16.5-18.5,25.5c-7.2,9-15.1,16.3-23.7,21.9c-8.7,5.6-18,7.3-28,5.1c-8-3.8-13.9-9.7-17.7-17.7
		c-3.8-8-6.4-16.7-7.7-26.2c-0.3-1.3-1.1-2.1-2.4-2.4c-1.2-0.2-2.2,0.2-2.9,1.4v0.2c-2.5,3.8-4.9,7.9-7.2,12.2
		c-4.5,8.5-9.5,16.2-14.9,23.1c-5.4,6.9-12.1,11-20.1,12.1c-10.3-1-15.7-7-16.1-18.1c-0.4-11.1,2.3-23.9,8.1-38.3
		s12.9-27.3,21.4-38.5c8.4-11.2,16.2-17.3,23.4-18.5c3.7-1.2,7.8-0.8,12.4,1.2c4.6,2,8.2,4.9,10.7,8.6c2.6,3.7,2.7,7.7,0.4,11.9
		c3.2,1.8,4.6,5.1,4.2,9.7c-3.7,19-4.1,35.5-1.3,49.6c2.8,14.1,9.2,21.8,19,23.1c9.8,1.3,23.5-7.4,41-26.2
		C1872.6,404.5,1878.8,395.6,1884.3,386.1z M1746.5,424.3c7.5-10.2,14.5-21.5,21-34c6.2-11.7,12.7-22.4,19.7-32.2
		c0.2-0.3,0.3-0.8,0.4-1.5c0.1-0.7,0.1-1.3,0-1.9c-0.1-0.6-0.4-1-1-1.1c-0.6-0.2-1.5,0.1-2.9,0.7c-9.2,5.3-17.2,15.4-24.1,30.3
		C1752.7,399.6,1748.3,412.8,1746.5,424.3z"/>
	<path d="M1990.7,386.1c0.5-1.2,1.2-1.8,2.2-1.8s1.8,0.4,2.5,1.1c0.7,0.8,0.8,1.7,0.5,2.9c-6.3,13.7-14.5,27-24.5,40.1
		c-10,13.1-21.9,23.1-35.7,30.1c-7,3.3-14.4,4.7-22.2,4.2c-14.8-1.8-24.4-9.4-28.6-22.7c-4.2-13.3-5.5-28.3-3.7-45
		c1.7-16.6,4.2-30.8,7.4-42.5c14.1-57.8,36.9-112,68.2-162.6c1.2-1.7,2.3-3.4,3.5-5.2c4-6.2,8.6-12,13.7-17.5
		c5.2-5.5,11.4-9.4,18.7-11.7c3.8-0.8,7.6-0.2,11.4,1.9c3.7,2.1,6.1,5.1,7.1,9.1c1.7,10.8,0.7,21.9-3,33.3c-3.7,11.4-8,22.4-13,32.8
		c-1.8,4.2-3.6,8.2-5.2,12.2c-18.7,39.6-40.4,77.6-65.2,113.9c-1.7,2.3-3.4,4.7-5.2,7.2c-4.7,7-10,13.5-16,19.5
		c-4,17.2-3.6,34,1.2,50.4c2.5,7.7,7.2,12.8,14,15.5c6.8,2.7,13.6,2.2,20.5-1.5c11.7-7.2,21.7-16.5,30.1-28.1
		C1977.8,410.3,1984.9,398.4,1990.7,386.1z M1936.5,277.2c-10.7,26.3-19.6,53.2-26.7,80.7c-0.7,2.2-1.2,4.4-1.7,6.7
		c-0.5,2.7-1.1,5.2-1.7,7.7c2.3-2.7,4.6-5.3,6.7-8c7.3-8.3,14.1-17,20.2-26c6.3-9.7,14.3-22.6,23.9-38.8
		c9.6-16.2,18.7-33.2,27.5-50.8c8.7-17.6,15.2-33.5,19.5-47.5c4.2-14,4.2-23.6-0.1-29c-1.8-1.7-4-1.8-6.6-0.4c-2.6,1.4-5,3.4-7.2,6
		c-2.2,2.6-4,4.6-5.1,6.1c-10.3,13.7-19.2,28.3-26.6,43.8c-7.4,15.6-14.4,31.3-20.9,47.1C1937.2,275.6,1936.9,276.4,1936.5,277.2z"
		/>
</g>
</svg>
